<svg width="32" height="32" fill="none" xmlns="http://www.w3.org/2000/svg"><path fill="#E5E5E5" d="M0 0h32v32H0z"/><path fill="#fff" d="M-208-270h375v849h-375z"/><path fill="#E7E7E7" d="M-208-77h375v184h-375z"/><path d="M-20-15h187v60H-20v-60Z" fill="#fff"/><path d="M16 31c8.284 0 15-6.716 15-15 0-8.284-6.716-15-15-15C7.716 1 1 7.716 1 16c0 8.284 6.716 15 15 15Z" fill="#fff" stroke="#C9CACA" stroke-linecap="round" stroke-linejoin="round"/><path d="M16.042 9.306a6.43 6.43 0 0 1 4.586 1.929l2.046-2.037a9.295 9.295 0 0 0-6.637-2.78 9.401 9.401 0 0 0-7.851 4.287l2.408 1.594a6.512 6.512 0 0 1 5.448-2.993Z" fill="#E83B30"/><path d="M25.596 15.363h-9.568v2.889h6.243a6.8 6.8 0 0 1-1.783 2.837c.626.55 1.512 1.345 2.159 1.929a9.734 9.734 0 0 0 2.818-6.085l.13-1.57Z" fill="#2E89CA"/><path d="M9.474 16.092a6.904 6.904 0 0 1 1.125-3.793L8.19 10.705a9.844 9.844 0 0 0-.575 9.771c.756-.373 1.85-.917 2.587-1.286a6.926 6.926 0 0 1-.73-3.098Z" fill="#F9BE36"/><path d="M20.48 21.094a6.437 6.437 0 0 1-4.438 1.784c-2.54 0-4.747-1.498-5.84-3.683-.736.368-1.83.912-2.586 1.286 1.566 3.135 4.757 5.287 8.426 5.287 2.394 0 4.696-.92 6.428-2.572l.178-.173c-.643-.585-1.533-1.38-2.159-1.929h-.009Z" fill="#1CAE60"/></svg>