<svg xmlns="http://www.w3.org/2000/svg" viewBox="0 0 30 30"><defs><style>.e{fill:#4cc764}</style></defs><g id="b"><g id="c"><circle class="e" cx="15" cy="15" r="15"/><path d="M25 14.13C25 9.65 20.51 6 14.99 6S4.98 9.65 4.98 14.13c0 4.02 3.56 7.38 8.37 8.02.33.07.77.22.88.49.1.25.07.65.03.91 0 0-.12.71-.14.86-.04.25-.2.99.87.54 1.07-.45 5.77-3.4 7.87-5.81 1.45-1.59 2.15-3.21 2.15-5Z" style="fill:#fff"/><path class="e" d="M21.67 16.71c.11 0 .19-.09.19-.19v-.71a.19.19 0 0 0-.19-.19h-1.91v-.74h1.91c.11 0 .19-.09.19-.19v-.71a.19.19 0 0 0-.19-.19h-1.91v-.74h1.91c.11 0 .19-.09.19-.19v-.71a.19.19 0 0 0-.19-.19h-2.81a.19.19 0 0 0-.19.19v4.37c0 .11.09.19.19.19h2.81ZM11.27 16.71c.11 0 .19-.09.19-.19v-.71a.19.19 0 0 0-.19-.19H9.36v-3.47a.19.19 0 0 0-.19-.19h-.71a.19.19 0 0 0-.19.19v4.37c0 .11.09.19.19.19h2.81Z"/><rect class="e" x="12.06" y="11.96" width="1.09" height="4.75" rx=".19" ry=".19"/><path class="e" d="M17.79 11.96h-.71a.19.19 0 0 0-.19.19v2.6l-2-2.7-.02-.02h-.01v-.02h-.02v-.02h-.03v-.02h-.79c-.11-.01-.19.07-.19.18v4.37c0 .11.09.19.19.19h.71c.11 0 .19-.09.19-.19v-2.59l2 2.7s.03.04.05.05h.02v.02h.04s.03.02.05.02h.71c.11 0 .19-.09.19-.19v-4.37a.19.19 0 0 0-.19-.19Z"/></g></g></svg>