<svg id="_イヤー_2" xmlns="http://www.w3.org/2000/svg" viewBox="0 0 12.8 3.37"><defs><style>.cls-28{fill:#231815}</style></defs><g id="_1"><path class="cls-28" d="M4.73 3.25s-.06-.03-.06-.04c0-.03.01-.05.04-.05.22-.03.39-.1.5-.22.12-.12.19-.28.22-.48 0-.03-.02-.04-.05-.04h-.75s-.05 0-.05-.05c0-.03.02-.05.05-.05h.75c.06 0 .11.01.14.04s.03.06.03.11a.88.88 0 0 1-.25.55c-.13.14-.33.22-.57.24ZM6.51 3.24s-.03-.01-.04-.02c0-.03 0-.05.02-.06a.55.55 0 0 0 .14-.09c.07-.07.11-.17.11-.3v-.09s.02-.05.05-.05.05.02.05.05v.09c0 .16-.05.28-.14.36-.06.05-.11.09-.17.11h-.02Zm.41-.28s-.04 0-.05-.02c0-.03 0-.05.02-.06.07-.03.13-.07.17-.12.04-.05.06-.1.06-.14 0-.03-.01-.04-.03-.04h-.61s-.05-.03-.05-.05 0-.05.05-.05h.64s.07.01.09.03c.02.02.03.05.03.09 0 .07-.03.14-.08.21-.05.07-.13.12-.22.15ZM8.2 3.24s-.06-.02-.07-.06c0-.04.02-.06.06-.06.23-.02.41-.1.53-.22.1-.1.18-.25.23-.45 0-.03.02-.04.05-.04h.01s.05.03.04.06c-.05.21-.14.39-.27.52s-.33.22-.59.25Zm.29-.62s-.03 0-.05-.02c-.1-.08-.21-.15-.31-.19-.02-.01-.03-.03-.02-.07s.05-.04.07-.03c.14.06.25.12.34.19.04.04.03.07.02.09-.02.02-.03.03-.05.03ZM10.68 3.26s-.03 0-.05-.02c-.16-.12-.33-.23-.52-.32a.694.694 0 0 1-.15-.09c-.02-.02-.03-.05-.03-.08s0-.06.03-.08c.01-.02.05-.05.1-.07.19-.08.35-.18.49-.28l.08-.06s.07-.01.09 0c.02.03.02.07-.01.09-.09.07-.18.12-.24.16-.08.05-.17.09-.27.14-.09.04-.12.06-.12.07-.01.01-.02.02-.02.03 0 .02.03.05.08.07.17.08.3.15.37.19.08.04.15.09.22.14.03.03.04.06.02.09-.01.01-.03.02-.05.02ZM12.2 3.26c-.15 0-.26-.03-.33-.1a.158.158 0 0 1-.05-.12c0-.04.01-.07.03-.09.04-.04.1-.06.17-.06s.14.03.21.08c.05.04.1.1.13.17.05-.01.1-.03.14-.07.04-.04.06-.08.06-.14 0-.06-.02-.11-.06-.15-.05-.05-.13-.07-.22-.07s-.17.01-.25.04c-.09.04-.19.09-.3.17-.03.01-.06 0-.08-.02s0-.06.02-.08c.21-.12.44-.28.68-.47l-.54.04s-.03 0-.04-.01c-.01 0-.02-.02-.02-.04 0-.03.02-.05.05-.05.22 0 .42-.02.61-.03.04 0 .07.02.08.05s0 .06-.02.08c-.02.02-.05.05-.1.08-.06.04-.11.07-.16.11l-.1.07c.07-.02.13-.02.18-.02.13 0 .23.03.3.1.05.05.08.12.08.21 0 .1-.05.18-.14.24-.09.06-.2.09-.33.09Zm-.29-.23s.02.07.07.1.11.04.19.04h.08s-.04-.08-.08-.12a.229.229 0 0 0-.16-.07c-.08 0-.1.04-.1.06ZM5.43.11H4.6s-.01 0-.01.01v1.66s0 .01.01.01h.21s.01 0 .01-.01v-.8h.59s.01 0 .01-.01V.78s0-.01-.01-.01h-.59V.32h.61s.01 0 .01-.01V.12s0-.01-.01-.01ZM6.11.71c-.32 0-.5.28-.5.55s.16.57.51.57c.13 0 .26-.06.34-.18v.13s0 .01.01.01h.2s.01 0 .01-.01V.75s0-.01-.01-.01h-.2s-.01 0-.01.01v.14a.423.423 0 0 0-.35-.18Zm.04.92c-.21 0-.31-.18-.31-.36s.11-.36.31-.36c.19 0 .32.15.32.36 0 .18-.1.36-.32.36ZM7.54.71c-.13 0-.24.06-.3.15V.75s0-.01-.01-.01h-.2s-.01 0-.01.01v1.03s0 .01.01.01h.2s.01 0 .01-.01v-.47c0-.19 0-.4.24-.4.18 0 .22.1.22.28v.59s0 .01.01.01h.2s.01 0 .01-.01v-.61c0-.2-.04-.46-.38-.46ZM8.71.71c-.33 0-.58.24-.58.57s.25.55.56.55c.11 0 .2-.02.29-.07v-.27h-.01c-.08.09-.17.14-.27.14-.2 0-.35-.15-.35-.35 0-.19.15-.35.33-.35.11 0 .21.04.29.13h.01V.79A.644.644 0 0 0 8.7.72ZM9.82.71a.31.31 0 0 0-.28.17V.75s0-.01-.01-.01h-.2s-.01 0-.01.01v1.03s0 .01.01.01h.2s.01 0 .01-.01v-.51c0-.16.03-.35.23-.35.05 0 .08.01.11.04h.02l.09-.18V.76a.337.337 0 0 0-.17-.05ZM10.58.71c-.32 0-.52.22-.52.57 0 .33.22.55.52.55.21 0 .39-.11.49-.29v-.02l-.17-.09h-.01c-.07.12-.15.19-.3.19-.19 0-.29-.16-.3-.32h.78s.01 0 .01-.01v-.03c0-.35-.19-.56-.5-.56Zm-.28.43c.03-.14.14-.23.28-.23s.24.09.27.23h-.55ZM11.98.68h-.01l-.29.69-.28-.63h-.23l.51 1.08h.02l.29-.66.29.66h.02l.51-1.07s0-.02-.01-.02h-.23l-.28.63L12 .67h-.01Z"/><path d="M.92.3H.89S.86.32.86.34h.01l.04.45.06.67H1s.03-.02.03-.04L.97.79.93.31Z" style="fill:#fbc400"/><path d="M1.78 1.09s-.03 0-.04.03l-.05.28-.05.31h.03s.03 0 .04-.02l.05-.28.05-.31h-.03Z" style="fill:#f49f00"/><path d="m.08 2.12-.05-.05-.02.02s-.01.03 0 .05l.02.02.05.05.02-.02s.01-.03 0-.05l-.02-.02Z" style="fill:#fff100"/><path d="m.18 2-.11-.15-.02-.03-.02.02s-.01.03 0 .05l.11.15.02.03.02-.02s.01-.03 0-.05Z" style="fill:#ffeb00"/><path d="m.21 1.71-.08-.14-.02-.03H.08s-.02.04 0 .06l.08.14.08.14.02.03h.03s.02-.04 0-.06l-.08-.14Z" style="fill:#ffe500"/><path d="m.32 1.5-.1-.25H.19s-.02.04-.01.05l.09.22.1.25H.4s.02-.04.01-.05L.32 1.5Z" style="fill:#ffdf00"/><path d="M.38 1.01V.98H.34s-.02.03-.02.05l.12.4.06.19v.03h.04s.02-.03.02-.05L.5 1.41l-.12-.4Z" style="fill:#ffd800"/><path d="M.55.76V.73H.51S.48.76.49.78l.08.38.08.38v.03h.04s.03-.03.02-.05l-.08-.38L.55.76Z" style="fill:#fed200"/><path d="M.73.53V.5H.7S.67.52.68.54l.08.55.05.37v.03h.03s.03-.02.02-.04l-.05-.37L.73.53Z" style="fill:#fccb00"/><path d="M1.12.17V.14h-.03s-.03.02-.03.04l.03.62.03.62v.03h.03s.03-.02.03-.04L1.15.79 1.12.17Z" style="fill:#fabd00"/><path d="M1.88 1.5s-.03 0-.04.02l-.04.15-.04.15s0 .04.02.04.03 0 .04-.02l.04-.15.04-.15s0-.04-.02-.04Z" style="fill:#f39800"/><path d="M1.66.71V.68h-.03s-.03 0-.03.03l-.04.38-.05.48v.03h.03s.03 0 .03-.03l.05-.48.04-.38Z" style="fill:#f6a700"/><path d="m1.44.33-.02.58-.02.58v.03h.03s.03-.01.03-.03l.02-.58.02-.58V.3h-.03s-.03.01-.03.03Z" style="fill:#f7ae00"/><path d="M1.26.03v1.44h.03s.03-.02.03-.03V0h-.03s-.03.02-.03.03Z" style="fill:#f8b600"/><path d="M2.74 3.07h.03s.03-.02.03-.04l-.04-.45-.06-.67h-.03s-.03.02-.03.04l.06.63.04.48Z" style="fill:#ec6639"/><path d="M1.88 2.28s.03 0 .04-.03l.05-.28.05-.31h-.03s-.03 0-.04.02l-.05.28-.05.31h.03Z" style="fill:#f29000"/><path d="m3.58 1.25.05.05.02-.02s.01-.03 0-.05l-.02-.02-.05-.05-.02.02s-.01.03 0 .05l.02.02Z" style="fill:#e5004f"/><path d="m3.48 1.37.11.15.02.03.02-.02s.01-.03 0-.05l-.11-.15-.02-.03-.02.02s-.01.03 0 .05Z" style="fill:#e6194d"/><path d="m3.45 1.66.08.14.02.03h.03s.02-.04 0-.06l-.08-.14-.08-.14-.02-.03h-.03s-.02.04 0 .06l.08.14Z" style="fill:#e72e4b"/><path d="m3.34 1.87.1.25h.03s.02-.04.01-.05l-.09-.22-.1-.25h-.03s-.02.04-.01.05l.09.22Z" style="fill:#e83c49"/><path d="M3.29 2.36v.03h.04s.02-.03.02-.05l-.12-.4-.06-.19v-.03h-.04s-.02.03-.02.05l.06.19.12.4Z" style="fill:#e94845"/><path d="M3.12 2.61v.03h.04s.03-.03.02-.05l-.08-.38-.08-.38V1.8h-.04s-.03.03-.02.05l.08.38.08.38Z" style="fill:#ea5342"/><path d="M2.93 2.83v.03h.03s.03-.02.02-.04l-.08-.55-.05-.37v-.03h-.03s-.03.02-.02.04l.05.37.08.55Z" style="fill:#eb5d3e"/><path d="M2.54 3.2v.03h.03s.03-.02.03-.04l-.03-.62-.03-.62v-.03h-.03s-.03.02-.03.04l.03.62.03.62Z" style="fill:#ed6f33"/><path d="M2 2.66v.03h.03s.03 0 .03-.03l.04-.38.05-.48v-.03h-.03s-.03 0-.03.03l-.05.48-.04.38Z" style="fill:#f18815"/><path d="m2.22 3.04.02-.58.02-.58v-.03h-.03s-.03.01-.03.03l-.02.58-.02.58v.03h.03s.03-.01.03-.03Z" style="fill:#ef8023"/><path d="M2.4 3.34V1.9h-.03s-.03.02-.03.03v1.44h.03s.03-.02.03-.03Z" style="fill:#ee772c"/></g></svg>